<svg width="240" height="32" viewBox="0 0 240 32" fill="none" xmlns="http://www.w3.org/2000/svg">
  <!-- Book Icon (lighter for dark background) -->
  <rect x="2" y="6" width="22" height="20" rx="2" fill="#5EEAD4" opacity="0.2"/>
  <path d="M4 9C4 7.89543 4.89543 7 6 7H10C11.1046 7 12 7.89543 12 9V23C12 24.1046 11.1046 25 10 25H6C4.89543 25 4 24.1046 4 23V9Z" stroke="#5EEAD4" stroke-width="2"/>
  <path d="M14 9C14 7.89543 14.8954 7 16 7H20C21.1046 7 22 7.89543 22 9V23C22 24.1046 21.1046 25 20 25H16C14.8954 25 14 24.1046 14 23V9Z" stroke="#5EEAD4" stroke-width="2"/>
  <line x1="7" y1="12" x2="19" y2="12" stroke="#5EEAD4" stroke-width="1.5" stroke-linecap="round"/>
  <line x1="7" y1="16" x2="19" y2="16" stroke="#5EEAD4" stroke-width="1.5" stroke-linecap="round"/>
  <line x1="7" y1="20" x2="16" y2="20" stroke="#5EEAD4" stroke-width="1.5" stroke-linecap="round"/>

  <!-- Text (lighter for dark background) -->
  <text x="30" y="22" font-family="system-ui, -apple-system, sans-serif" font-size="18" font-weight="700" fill="#F9FAFB">Rulebook Company</text>
</svg>
